<svg width="234" height="55" viewBox="0 0 234 55" fill="none" xmlns="http://www.w3.org/2000/svg">
<g clip-path="url(#clip0_6436_1066)">
<path d="M42.4224 1.18182V23H38.9068L28.6262 8.13849H28.4451V23H24.4927V1.18182H28.0296L38.2995 16.054H38.4913V1.18182H42.4224ZM49.5309 23H45.3121L52.9932 1.18182H57.8725L65.5642 23H61.3455L55.5181 5.65625H55.3476L49.5309 23ZM49.6694 14.4453H61.175V17.62H49.6694V14.4453ZM64.8425 4.49503V1.18182H82.2501V4.49503H75.5065V23H71.5861V4.49503H64.8425ZM89.5584 1.18182V23H85.606V1.18182H89.5584ZM113.334 12.0909C113.334 14.4418 112.894 16.4553 112.013 18.1314C111.14 19.8004 109.946 21.0788 108.434 21.9666C106.928 22.8544 105.22 23.2983 103.309 23.2983C101.399 23.2983 99.6871 22.8544 98.1743 21.9666C96.6686 21.0717 95.4755 19.7898 94.5948 18.1207C93.7212 16.4446 93.2844 14.4347 93.2844 12.0909C93.2844 9.74006 93.7212 7.73011 94.5948 6.06108C95.4755 4.38494 96.6686 3.10298 98.1743 2.2152C99.6871 1.32741 101.399 0.883522 103.309 0.883522C105.22 0.883522 106.928 1.32741 108.434 2.2152C109.946 3.10298 111.14 4.38494 112.013 6.06108C112.894 7.73011 113.334 9.74006 113.334 12.0909ZM109.36 12.0909C109.36 10.4361 109.101 9.04048 108.583 7.90412C108.071 6.76065 107.361 5.89773 106.452 5.31534C105.543 4.72585 104.495 4.43111 103.309 4.43111C102.123 4.43111 101.076 4.72585 100.167 5.31534C99.2574 5.89773 98.5436 6.76065 98.0252 7.90412C97.5138 9.04048 97.2581 10.4361 97.2581 12.0909C97.2581 13.7457 97.5138 15.1449 98.0252 16.2884C98.5436 17.4247 99.2574 18.2876 100.167 18.8771C101.076 19.4595 102.123 19.7507 103.309 19.7507C104.495 19.7507 105.543 19.4595 106.452 18.8771C107.361 18.2876 108.071 17.4247 108.583 16.2884C109.101 15.1449 109.36 13.7457 109.36 12.0909ZM135.001 1.18182V23H131.485L121.204 8.13849H121.023V23H117.071V1.18182H120.608L130.878 16.054H131.069V1.18182H135.001ZM142.109 23H137.89L145.571 1.18182H150.451L158.142 23H153.924L148.096 5.65625H147.926L142.109 23ZM142.247 14.4453H153.753V17.62H142.247V14.4453ZM161.016 23V1.18182H164.969V19.6868H174.578V23H161.016ZM31.8862 54H24.4927V32.1818H32.0353C34.2015 32.1818 36.0623 32.6186 37.6177 33.4922C39.1802 34.3587 40.3805 35.6051 41.2185 37.2315C42.0566 38.858 42.4756 40.804 42.4756 43.0696C42.4756 45.3423 42.0531 47.2955 41.2079 48.929C40.3698 50.5625 39.1589 51.8161 37.5751 52.6896C35.9984 53.5632 34.1021 54 31.8862 54ZM28.4451 50.5803H31.6944C33.2143 50.5803 34.482 50.3033 35.4977 49.7493C36.5133 49.1882 37.2768 48.3537 37.7881 47.2457C38.2995 46.1307 38.5552 44.7386 38.5552 43.0696C38.5552 41.4006 38.2995 40.0156 37.7881 38.9148C37.2768 37.8068 36.5204 36.9794 35.519 36.4325C34.5246 35.8786 33.2889 35.6016 31.8116 35.6016H28.4451V50.5803ZM47.8609 54H43.6422L51.3233 32.1818H56.2026L63.8943 54H59.6756L53.8482 36.6562H53.6777L47.8609 54ZM47.9994 45.4453H59.5051V48.62H47.9994V45.4453ZM63.1726 35.495V32.1818H80.5802V35.495H73.8366V54H69.9162V35.495H63.1726ZM84.1012 54H79.8824L87.5635 32.1818H92.4428L100.135 54H95.9158L90.0884 36.6562H89.9179L84.1012 54ZM84.2397 45.4453H95.7454V48.62H84.2397V45.4453ZM110.45 54V32.1818H114.402V50.6868H124.012V54H110.45ZM131.394 32.1818V54H127.442V32.1818H131.394ZM135.674 54V32.1818H144.027C145.603 32.1818 146.914 32.4304 147.958 32.9276C149.009 33.4176 149.794 34.0888 150.312 34.9411C150.838 35.7933 151.1 36.7592 151.1 37.8388C151.1 38.7266 150.93 39.4865 150.589 40.1186C150.248 40.7436 149.79 41.2514 149.215 41.642C148.64 42.0327 147.997 42.3132 147.287 42.4837V42.6967C148.061 42.7393 148.803 42.9773 149.513 43.4105C150.23 43.8366 150.816 44.4403 151.271 45.2216C151.725 46.0028 151.953 46.9474 151.953 48.0554C151.953 49.1847 151.679 50.2003 151.132 51.1023C150.586 51.9972 149.762 52.7038 148.661 53.2223C147.56 53.7408 146.175 54 144.506 54H135.674ZM139.627 50.6974H143.877C145.312 50.6974 146.345 50.424 146.978 49.8771C147.617 49.3232 147.936 48.6129 147.936 47.7464C147.936 47.1001 147.777 46.5178 147.457 45.9993C147.137 45.4737 146.683 45.0618 146.093 44.7635C145.504 44.4581 144.801 44.3054 143.984 44.3054H139.627V50.6974ZM139.627 41.4609H143.537C144.218 41.4609 144.833 41.3366 145.38 41.0881C145.926 40.8324 146.356 40.4737 146.669 40.0121C146.988 39.5433 147.148 38.9893 147.148 38.3501C147.148 37.505 146.85 36.8089 146.253 36.2621C145.664 35.7152 144.787 35.4418 143.622 35.4418H139.627V41.4609ZM155.391 54V32.1818H163.573C165.249 32.1818 166.655 32.473 167.792 33.0554C168.935 33.6378 169.798 34.4545 170.38 35.5057C170.97 36.5497 171.265 37.7678 171.265 39.1598C171.265 40.5589 170.966 41.7734 170.37 42.8033C169.78 43.826 168.91 44.6179 167.76 45.179C166.609 45.733 165.196 46.0099 163.52 46.0099H157.692V42.7287H162.987C163.967 42.7287 164.77 42.5937 165.395 42.3239C166.02 42.0469 166.481 41.6456 166.78 41.12C167.085 40.5874 167.238 39.9339 167.238 39.1598C167.238 38.3857 167.085 37.7251 166.78 37.1783C166.474 36.6243 166.009 36.2053 165.384 35.9212C164.759 35.63 163.953 35.4844 162.966 35.4844H159.344V54H155.391ZM166.662 44.1136L172.064 54H167.653L162.348 44.1136H166.662ZM177.705 54H173.486L181.167 32.1818H186.046L193.738 54H189.519L183.692 36.6562H183.521L177.705 54ZM177.843 45.4453H189.349V48.62H177.843V45.4453ZM196.612 54V32.1818H204.794C206.47 32.1818 207.876 32.473 209.012 33.0554C210.156 33.6378 211.019 34.4545 211.601 35.5057C212.191 36.5497 212.485 37.7678 212.485 39.1598C212.485 40.5589 212.187 41.7734 211.591 42.8033C211.001 43.826 210.131 44.6179 208.98 45.179C207.83 45.733 206.417 46.0099 204.74 46.0099H198.913V42.7287H204.208C205.188 42.7287 205.99 42.5937 206.615 42.3239C207.24 42.0469 207.702 41.6456 208 41.12C208.306 40.5874 208.458 39.9339 208.458 39.1598C208.458 38.3857 208.306 37.7251 208 37.1783C207.695 36.6243 207.23 36.2053 206.605 35.9212C205.98 35.63 205.174 35.4844 204.186 35.4844H200.564V54H196.612ZM207.883 44.1136L213.284 54H208.874L203.569 44.1136H207.883ZM213.782 32.1818H218.246L223.584 41.8338H223.797L229.134 32.1818H233.598L225.661 45.8608V54H221.719V45.8608L213.782 32.1818Z" fill="#333333"/>
<path d="M13.6281 5.63278C14.9537 5.63278 16.0284 4.58849 16.0284 3.30028C16.0284 2.01207 14.9537 0.967773 13.6281 0.967773C12.3024 0.967773 11.2278 2.01207 11.2278 3.30028C11.2278 4.58849 12.3024 5.63278 13.6281 5.63278Z" fill="#333333"/>
<path d="M7.27057 9.35202C8.59624 9.35202 9.6709 8.30772 9.6709 7.01952C9.6709 5.73131 8.59624 4.68701 7.27057 4.68701C5.9449 4.68701 4.87024 5.73131 4.87024 7.01952C4.87024 8.30772 5.9449 9.35202 7.27057 9.35202Z" fill="#333333"/>
<path d="M3.05383 15.4668C4.3795 15.4668 5.45416 14.4225 5.45416 13.1343C5.45416 11.8461 4.3795 10.8018 3.05383 10.8018C1.72817 10.8018 0.653503 11.8461 0.653503 13.1343C0.653503 14.4225 1.72817 15.4668 3.05383 15.4668Z" fill="#333333"/>
<rect x="16.1578" y="19.6519" width="3.34804" height="15.5043" transform="rotate(90 16.1578 19.6519)" fill="#333333"/>
</g>
<defs>
<clipPath id="clip0_6436_1066">
<rect width="234" height="55" fill="white"/>
</clipPath>
</defs>
</svg>
