<svg width="395" height="46" viewBox="0 0 395 46" fill="none" xmlns="http://www.w3.org/2000/svg">
<g clip-path="url(#clip0_6389_1017)">
<path d="M15.8999 15.2168C17.5245 15.2168 18.8414 13.9371 18.8414 12.3584C18.8414 10.7798 17.5245 9.5 15.8999 9.5C14.2753 9.5 12.9584 10.7798 12.9584 12.3584C12.9584 13.9371 14.2753 15.2168 15.8999 15.2168Z" fill="#333333"/>
<path d="M8.109 19.7749C9.73356 19.7749 11.0505 18.4952 11.0505 16.9165C11.0505 15.3379 9.73356 14.0581 8.109 14.0581C6.48445 14.0581 5.16748 15.3379 5.16748 16.9165C5.16748 18.4952 6.48445 19.7749 8.109 19.7749Z" fill="#333333"/>
<path d="M2.94152 27.2686C4.56608 27.2686 5.88305 25.9888 5.88305 24.4102C5.88305 22.8315 4.56608 21.5518 2.94152 21.5518C1.31697 21.5518 0 22.8315 0 24.4102C0 25.9888 1.31697 27.2686 2.94152 27.2686Z" fill="#333333"/>
<rect x="19" y="32.397" width="4.10292" height="19" transform="rotate(90 19 32.397)" fill="#333333"/>
<path d="M30.654 36V9.4H35.214L49.35 28.628V9.4H53.758V36H49.35L35.062 16.544V36H30.654ZM65.4017 36.456C63.1217 36.456 61.3484 35.9493 60.0817 34.936C58.8404 33.9227 58.2197 32.4913 58.2197 30.642C58.2197 28.666 58.8784 27.1587 60.1957 26.12C61.5384 25.0813 63.4004 24.562 65.7817 24.562H70.6077C70.4557 23.1687 70.0631 22.1047 69.4297 21.37C68.7964 20.6353 67.8591 20.268 66.6177 20.268C65.7057 20.268 64.9077 20.458 64.2237 20.838C63.5397 21.218 62.9571 21.8133 62.4757 22.624L58.7517 21.256C59.1571 20.42 59.6891 19.6473 60.3477 18.938C61.0317 18.2033 61.8804 17.6207 62.8937 17.19C63.9324 16.7593 65.1737 16.544 66.6177 16.544C68.4671 16.544 70.0124 16.9113 71.2537 17.646C72.4951 18.3553 73.4071 19.3813 73.9897 20.724C74.5977 22.0667 74.9017 23.688 74.9017 25.588L74.7877 36H70.8737L70.7597 33.682C70.2531 34.5687 69.5437 35.2527 68.6317 35.734C67.7451 36.2153 66.6684 36.456 65.4017 36.456ZM65.9337 32.884C66.8711 32.884 67.6944 32.6813 68.4037 32.276C69.1384 31.8453 69.6957 31.2753 70.0757 30.566C70.4811 29.8567 70.6837 29.0713 70.6837 28.21V27.83H67.1497C65.4524 27.83 64.2617 28.0707 63.5777 28.552C62.8937 29.008 62.5517 29.6667 62.5517 30.528C62.5517 31.2627 62.8431 31.8453 63.4257 32.276C64.0337 32.6813 64.8697 32.884 65.9337 32.884ZM86.7735 36.456C84.7721 36.456 83.2395 35.962 82.1755 34.974C81.1368 33.9607 80.6175 32.5167 80.6175 30.642V20.648H77.4635V17H80.6175V11.072H84.8355V17H89.9655V20.648H84.8355V29.844C84.8355 30.7307 85.0381 31.402 85.4435 31.858C85.8741 32.314 86.4948 32.542 87.3055 32.542C87.5588 32.542 87.8375 32.4913 88.1415 32.39C88.4455 32.2887 88.7875 32.0987 89.1675 31.82L90.7255 35.05C90.0668 35.506 89.4081 35.848 88.7495 36.076C88.0908 36.3293 87.4321 36.456 86.7735 36.456ZM94.3954 36V17H98.6134V36H94.3954ZM96.5234 13.39C95.8394 13.39 95.2441 13.1493 94.7374 12.668C94.2561 12.1613 94.0154 11.566 94.0154 10.882C94.0154 10.198 94.2561 9.61533 94.7374 9.134C95.2441 8.65267 95.8394 8.412 96.5234 8.412C97.2074 8.412 97.7901 8.65267 98.2714 9.134C98.7781 9.61533 99.0314 10.198 99.0314 10.882C99.0314 11.566 98.7781 12.1613 98.2714 12.668C97.7901 13.1493 97.2074 13.39 96.5234 13.39ZM112.369 36.456C110.469 36.456 108.772 36.038 107.277 35.202C105.808 34.3407 104.655 33.1627 103.819 31.668C102.983 30.1733 102.565 28.4507 102.565 26.5C102.565 24.5493 102.971 22.8267 103.781 21.332C104.617 19.8373 105.77 18.672 107.239 17.836C108.709 16.9747 110.393 16.544 112.293 16.544C114.193 16.544 115.878 16.9747 117.347 17.836C118.817 18.672 119.957 19.8373 120.767 21.332C121.603 22.8267 122.021 24.5493 122.021 26.5C122.021 28.4507 121.616 30.1733 120.805 31.668C119.995 33.1627 118.855 34.3407 117.385 35.202C115.916 36.038 114.244 36.456 112.369 36.456ZM112.369 32.542C113.408 32.542 114.333 32.2887 115.143 31.782C115.954 31.25 116.587 30.5407 117.043 29.654C117.499 28.742 117.727 27.6907 117.727 26.5C117.727 25.3093 117.487 24.2707 117.005 23.384C116.549 22.472 115.916 21.7627 115.105 21.256C114.295 20.724 113.357 20.458 112.293 20.458C111.229 20.458 110.292 20.7113 109.481 21.218C108.671 21.7247 108.037 22.434 107.581 23.346C107.125 24.258 106.897 25.3093 106.897 26.5C106.897 27.6907 107.125 28.742 107.581 29.654C108.063 30.5407 108.709 31.25 109.519 31.782C110.355 32.2887 111.305 32.542 112.369 32.542ZM125.71 36V17H129.7L129.89 19.698C130.498 18.6847 131.283 17.912 132.246 17.38C133.234 16.8227 134.361 16.544 135.628 16.544C137.148 16.544 138.44 16.848 139.504 17.456C140.593 18.064 141.416 19.014 141.974 20.306C142.556 21.5727 142.848 23.232 142.848 25.284V36H138.592V26.272C138.592 24.752 138.414 23.5867 138.06 22.776C137.73 21.94 137.249 21.3573 136.616 21.028C136.008 20.6987 135.286 20.534 134.45 20.534C133.031 20.5087 131.929 20.9773 131.144 21.94C130.358 22.9027 129.966 24.2833 129.966 26.082V36H125.71ZM153.277 36.456C150.997 36.456 149.223 35.9493 147.957 34.936C146.715 33.9227 146.095 32.4913 146.095 30.642C146.095 28.666 146.753 27.1587 148.071 26.12C149.413 25.0813 151.275 24.562 153.657 24.562H158.483C158.331 23.1687 157.938 22.1047 157.305 21.37C156.671 20.6353 155.734 20.268 154.493 20.268C153.581 20.268 152.783 20.458 152.099 20.838C151.415 21.218 150.832 21.8133 150.351 22.624L146.627 21.256C147.032 20.42 147.564 19.6473 148.223 18.938C148.907 18.2033 149.755 17.6207 150.769 17.19C151.807 16.7593 153.049 16.544 154.493 16.544C156.342 16.544 157.887 16.9113 159.129 17.646C160.37 18.3553 161.282 19.3813 161.865 20.724C162.473 22.0667 162.777 23.688 162.777 25.588L162.663 36H158.749L158.635 33.682C158.128 34.5687 157.419 35.2527 156.507 35.734C155.62 36.2153 154.543 36.456 153.277 36.456ZM153.809 32.884C154.746 32.884 155.569 32.6813 156.279 32.276C157.013 31.8453 157.571 31.2753 157.951 30.566C158.356 29.8567 158.559 29.0713 158.559 28.21V27.83H155.025C153.327 27.83 152.137 28.0707 151.453 28.552C150.769 29.008 150.427 29.6667 150.427 30.528C150.427 31.2627 150.718 31.8453 151.301 32.276C151.909 32.6813 152.745 32.884 153.809 32.884ZM167.086 36V9.4H171.342V36H167.086ZM186.031 36V9.4H194.391C197 9.4 199.306 9.97 201.307 11.11C203.334 12.2247 204.917 13.7827 206.057 15.784C207.222 17.7853 207.805 20.0907 207.805 22.7C207.805 25.284 207.222 27.5767 206.057 29.578C204.917 31.5793 203.334 33.15 201.307 34.29C199.306 35.43 197 36 194.391 36H186.031ZM190.439 31.896H194.391C195.632 31.896 196.798 31.668 197.887 31.212C198.976 30.7307 199.926 30.072 200.737 29.236C201.548 28.4 202.181 27.4247 202.637 26.31C203.093 25.1953 203.321 23.992 203.321 22.7C203.321 21.408 203.093 20.2047 202.637 19.09C202.181 17.9753 201.548 17 200.737 16.164C199.926 15.328 198.976 14.682 197.887 14.226C196.798 13.7447 195.632 13.504 194.391 13.504H190.439V31.896ZM217.773 36.456C215.493 36.456 213.719 35.9493 212.453 34.936C211.211 33.9227 210.591 32.4913 210.591 30.642C210.591 28.666 211.249 27.1587 212.567 26.12C213.909 25.0813 215.771 24.562 218.153 24.562H222.979C222.827 23.1687 222.434 22.1047 221.801 21.37C221.167 20.6353 220.23 20.268 218.989 20.268C218.077 20.268 217.279 20.458 216.595 20.838C215.911 21.218 215.328 21.8133 214.847 22.624L211.123 21.256C211.528 20.42 212.06 19.6473 212.719 18.938C213.403 18.2033 214.251 17.6207 215.265 17.19C216.303 16.7593 217.545 16.544 218.989 16.544C220.838 16.544 222.383 16.9113 223.625 17.646C224.866 18.3553 225.778 19.3813 226.361 20.724C226.969 22.0667 227.273 23.688 227.273 25.588L227.159 36H223.245L223.131 33.682C222.624 34.5687 221.915 35.2527 221.003 35.734C220.116 36.2153 219.039 36.456 217.773 36.456ZM218.305 32.884C219.242 32.884 220.065 32.6813 220.775 32.276C221.509 31.8453 222.067 31.2753 222.447 30.566C222.852 29.8567 223.055 29.0713 223.055 28.21V27.83H219.521C217.823 27.83 216.633 28.0707 215.949 28.552C215.265 29.008 214.923 29.6667 214.923 30.528C214.923 31.2627 215.214 31.8453 215.797 32.276C216.405 32.6813 217.241 32.884 218.305 32.884ZM239.145 36.456C237.143 36.456 235.611 35.962 234.547 34.974C233.508 33.9607 232.989 32.5167 232.989 30.642V20.648H229.835V17H232.989V11.072H237.207V17H242.337V20.648H237.207V29.844C237.207 30.7307 237.409 31.402 237.815 31.858C238.245 32.314 238.866 32.542 239.677 32.542C239.93 32.542 240.209 32.4913 240.513 32.39C240.817 32.2887 241.159 32.0987 241.539 31.82L243.097 35.05C242.438 35.506 241.779 35.848 241.121 36.076C240.462 36.3293 239.803 36.456 239.145 36.456ZM252.359 36.456C250.079 36.456 248.305 35.9493 247.039 34.936C245.797 33.9227 245.177 32.4913 245.177 30.642C245.177 28.666 245.835 27.1587 247.153 26.12C248.495 25.0813 250.357 24.562 252.739 24.562H257.565C257.413 23.1687 257.02 22.1047 256.387 21.37C255.753 20.6353 254.816 20.268 253.575 20.268C252.663 20.268 251.865 20.458 251.181 20.838C250.497 21.218 249.914 21.8133 249.433 22.624L245.709 21.256C246.114 20.42 246.646 19.6473 247.305 18.938C247.989 18.2033 248.837 17.6207 249.851 17.19C250.889 16.7593 252.131 16.544 253.575 16.544C255.424 16.544 256.969 16.9113 258.211 17.646C259.452 18.3553 260.364 19.3813 260.947 20.724C261.555 22.0667 261.859 23.688 261.859 25.588L261.745 36H257.831L257.717 33.682C257.21 34.5687 256.501 35.2527 255.589 35.734C254.702 36.2153 253.625 36.456 252.359 36.456ZM252.891 32.884C253.828 32.884 254.651 32.6813 255.361 32.276C256.095 31.8453 256.653 31.2753 257.033 30.566C257.438 29.8567 257.641 29.0713 257.641 28.21V27.83H254.107C252.409 27.83 251.219 28.0707 250.535 28.552C249.851 29.008 249.509 29.6667 249.509 30.528C249.509 31.2627 249.8 31.8453 250.383 32.276C250.991 32.6813 251.827 32.884 252.891 32.884ZM276.133 36V9.4H280.541V31.972H292.587V36H276.133ZM295.751 36V17H299.969V36H295.751ZM297.879 13.39C297.195 13.39 296.6 13.1493 296.093 12.668C295.612 12.1613 295.371 11.566 295.371 10.882C295.371 10.198 295.612 9.61533 296.093 9.134C296.6 8.65267 297.195 8.412 297.879 8.412C298.563 8.412 299.146 8.65267 299.627 9.134C300.134 9.61533 300.387 10.198 300.387 10.882C300.387 11.566 300.134 12.1613 299.627 12.668C299.146 13.1493 298.563 13.39 297.879 13.39ZM315.245 36.456C313.902 36.456 312.724 36.1647 311.711 35.582C310.698 34.9993 309.849 34.176 309.165 33.112L309.013 36H304.985V9.4H309.241V19.812C309.9 18.7733 310.736 17.9753 311.749 17.418C312.762 16.8353 313.928 16.544 315.245 16.544C316.968 16.544 318.462 16.962 319.729 17.798C321.021 18.6087 322.022 19.7613 322.731 21.256C323.466 22.7253 323.833 24.4733 323.833 26.5C323.833 28.5013 323.466 30.2493 322.731 31.744C322.022 33.2387 321.021 34.404 319.729 35.24C318.462 36.0507 316.968 36.456 315.245 36.456ZM314.181 32.58C315.194 32.58 316.094 32.3267 316.879 31.82C317.664 31.288 318.285 30.566 318.741 29.654C319.222 28.742 319.463 27.6907 319.463 26.5C319.463 25.3093 319.235 24.258 318.779 23.346C318.348 22.434 317.74 21.7247 316.955 21.218C316.17 20.7113 315.258 20.458 314.219 20.458C313.256 20.458 312.395 20.7113 311.635 21.218C310.875 21.7247 310.28 22.434 309.849 23.346C309.444 24.258 309.241 25.3093 309.241 26.5C309.241 27.6907 309.444 28.742 309.849 29.654C310.28 30.566 310.862 31.288 311.597 31.82C312.357 32.3267 313.218 32.58 314.181 32.58ZM327.473 36V17H331.729V20.458C332.489 19.2673 333.477 18.3807 334.693 17.798C335.909 17.2153 337.163 16.924 338.455 16.924V20.99C337.29 20.99 336.188 21.1547 335.149 21.484C334.136 21.788 333.313 22.2947 332.679 23.004C332.046 23.7133 331.729 24.6507 331.729 25.816V36H327.473ZM347.396 36.456C345.116 36.456 343.343 35.9493 342.076 34.936C340.835 33.9227 340.214 32.4913 340.214 30.642C340.214 28.666 340.873 27.1587 342.19 26.12C343.533 25.0813 345.395 24.562 347.776 24.562H352.602C352.45 23.1687 352.057 22.1047 351.424 21.37C350.791 20.6353 349.853 20.268 348.612 20.268C347.7 20.268 346.902 20.458 346.218 20.838C345.534 21.218 344.951 21.8133 344.47 22.624L340.746 21.256C341.151 20.42 341.683 19.6473 342.342 18.938C343.026 18.2033 343.875 17.6207 344.888 17.19C345.927 16.7593 347.168 16.544 348.612 16.544C350.461 16.544 352.007 16.9113 353.248 17.646C354.489 18.3553 355.401 19.3813 355.984 20.724C356.592 22.0667 356.896 23.688 356.896 25.588L356.782 36H352.868L352.754 33.682C352.247 34.5687 351.538 35.2527 350.626 35.734C349.739 36.2153 348.663 36.456 347.396 36.456ZM347.928 32.884C348.865 32.884 349.689 32.6813 350.398 32.276C351.133 31.8453 351.69 31.2753 352.07 30.566C352.475 29.8567 352.678 29.0713 352.678 28.21V27.83H349.144C347.447 27.83 346.256 28.0707 345.572 28.552C344.888 29.008 344.546 29.6667 344.546 30.528C344.546 31.2627 344.837 31.8453 345.42 32.276C346.028 32.6813 346.864 32.884 347.928 32.884ZM361.206 36V17H365.462V20.458C366.222 19.2673 367.21 18.3807 368.426 17.798C369.642 17.2153 370.896 16.924 372.188 16.924V20.99C371.022 20.99 369.92 21.1547 368.882 21.484C367.868 21.788 367.045 22.2947 366.412 23.004C365.778 23.7133 365.462 24.6507 365.462 25.816V36H361.206ZM378.012 44.056C377.404 44.056 376.72 43.942 375.96 43.714C375.226 43.486 374.516 43.1947 373.832 42.84L375.428 39.382C375.91 39.61 376.353 39.7873 376.758 39.914C377.164 40.066 377.493 40.142 377.746 40.142C378.354 40.142 378.861 39.9773 379.266 39.648C379.697 39.344 380.039 38.888 380.292 38.28L381.318 35.848L372.882 17H377.518L383.294 30.984L388.956 17H393.592L384.776 38.014C384.244 39.23 383.7 40.294 383.142 41.206C382.61 42.118 381.939 42.8147 381.128 43.296C380.318 43.8027 379.279 44.056 378.012 44.056Z" fill="#333333"/>
</g>
<defs>
<clipPath id="clip0_6389_1017">
<rect width="394.5" height="46" fill="white"/>
</clipPath>
</defs>
</svg>
